<?xml version="1.0" standalone="no"?>
<!DOCTYPE svg PUBLIC "-//W3C//DTD SVG 20010904//EN"
 "http://www.w3.org/TR/2001/REC-SVG-20010904/DTD/svg10.dtd">
<svg version="1.0" xmlns="http://www.w3.org/2000/svg"
 width="127.000000pt" height="127.000000pt" viewBox="0 0 127.000000 127.000000"
 preserveAspectRatio="xMidYMid meet">
<metadata>
Created by potrace 1.11, written by Peter Selinger 2001-2013
</metadata>
<g transform="translate(0.000000,127.000000) scale(0.100000,-0.100000)"
fill="#000000" stroke="none">
<path d="M550 1163 c-332 -55 -514 -413 -363 -715 123 -245 431 -342 674 -212
72 38 170 137 204 204 77 151 74 337 -7 478 -99 173 -315 277 -508 245z m230
-388 c0 -22 4 -25 35 -25 28 0 35 -4 35 -20 0 -16 -7 -20 -35 -20 -35 0 -35 0
-35 -46 l0 -47 34 6 c47 7 67 -14 34 -37 -32 -23 -65 -20 -93 9 -22 22 -25 32
-25 104 0 66 3 82 18 90 26 16 32 13 32 -14z m-315 -15 c43 -17 24 -35 -36
-35 -71 0 -79 -18 -11 -26 62 -8 82 -22 82 -59 0 -53 -73 -84 -144 -60 -38 12
-41 17 -27 38 6 11 17 11 45 3 39 -10 86 0 86 18 0 5 -21 13 -47 16 -93 12
-119 41 -81 90 15 20 28 25 63 25 24 0 56 -5 70 -10z m225 -17 c18 -23 21 -37
18 -82 -5 -60 -20 -77 -75 -87 -65 -12 -113 16 -113 65 0 38 19 52 82 60 29 3
53 11 53 16 0 14 -60 18 -83 6 -19 -10 -42 2 -42 21 0 14 42 27 92 27 39 1 50
-3 68 -26z m362 9 c18 -18 -9 -44 -32 -32 -23 12 -87 13 -94 1 -7 -11 18 -21
54 -21 67 0 105 -43 80 -90 -21 -40 -85 -51 -147 -25 -32 14 -35 17 -22 30 10
10 24 12 49 7 45 -10 80 -4 80 13 0 14 -30 25 -70 25 -62 0 -93 63 -47 95 25
19 129 17 149 -3z"/>
<path d="M573 653 c-37 -14 14 -45 60 -36 18 4 27 12 27 24 0 15 -7 19 -37 18
-21 0 -44 -3 -50 -6z"/>
</g>
</svg>
